<svg aria-roledescription="flowchart-v2" role="graphics-document document" viewBox="-8 -8 1570.28515625 687" style="max-width: 1570.28515625px;" xmlns="http://www.w3.org/2000/svg" width="100%">
<style>
text { fill: #000000 !important; color: #000000 !important; font-weight: bold; }
.nodeLabel { fill: #000000 !important; color: #000000 !important; font-weight: bold; }
path { stroke: #000000 !important; }
.arrowMarkerPath { fill: #000000 !important; }
</style>
<defs>
<marker orient="auto" markerHeight="12" markerWidth="12" markerUnits="userSpaceOnUse" refY="5" refX="6" viewBox="0 0 10 10" class="marker flowchart" id="flowchart-pointEnd">
<path style="stroke-width: 1; stroke-dasharray: 1, 0;" class="arrowMarkerPath" d="M 0 0 L 10 5 L 0 10 z" fill="#000000"/>
</marker>
</defs>

<g class="root">
<g class="edgePaths">
<path marker-end="url(#flowchart-pointEnd)" style="fill:none;stroke:#000000;stroke-width:2.5px;" d="M174.598,53L174.598,97.7"/>
<path marker-end="url(#flowchart-pointEnd)" style="fill:none;stroke:#000000;stroke-width:2.5px;" d="M271.059,137.897L1051.636,218.698"/>
<path marker-end="url(#flowchart-pointEnd)" style="fill:none;stroke:#000000;stroke-width:2.5px;" d="M1249.8,259L1284.178,306.928"/>
<path marker-end="url(#flowchart-pointEnd)" style="fill:none;stroke:#000000;stroke-width:2.5px;" d="M1311.446,362L1400.645,406.7"/>
<path marker-end="url(#flowchart-pointEnd)" style="fill:none;stroke:#000000;stroke-width:2.5px;" d="M1156.125,156L1156.125,200.7"/>
<path marker-end="url(#flowchart-pointEnd)" style="fill:none;stroke:#000000;stroke-width:2.5px;" d="M738.844,259L1114.313,324.449"/>
<path marker-end="url(#flowchart-pointEnd)" style="fill:none;stroke:#000000;stroke-width:2.5px;" d="M174.598,156L174.598,210.2"/>
<path marker-end="url(#flowchart-pointEnd)" style="fill:none;stroke:#000000;stroke-width:2.5px;" d="M239.059,239.792L629.875,303.7"/>
<path marker-end="url(#flowchart-pointEnd)" style="fill:none;stroke:#000000;stroke-width:2.5px;" d="M239.059,243.894L465.961,303.7"/>
<path marker-end="url(#flowchart-pointEnd)" style="fill:none;stroke:#000000;stroke-width:2.5px;" d="M208.194,249.5L276.375,303.7"/>
<path marker-end="url(#flowchart-pointEnd)" style="fill:none;stroke:#000000;stroke-width:2.5px;" d="M141.001,249.5L72.82,303.7"/>
<path marker-end="url(#flowchart-pointEnd)" style="fill:none;stroke:#000000;stroke-width:2.5px;" d="M1056.891,250.067L844.579,314.126"/>
<path marker-end="url(#flowchart-pointEnd)" style="fill:none;stroke:#000000;stroke-width:2.5px;" d="M859.51,352.5L919.5,406.7"/>
<path marker-end="url(#flowchart-pointEnd)" style="fill:none;stroke:#000000;stroke-width:2.5px;" d="M800.389,352.5L740.398,406.7"/>
<path marker-end="url(#flowchart-pointEnd)" style="fill:none;stroke:#000000;stroke-width:2.5px;" d="M752.801,350.688L568.344,406.7"/>
<path marker-end="url(#flowchart-pointEnd)" style="fill:none;stroke:#000000;stroke-width:2.5px;" d="M1160.636,362L1107.563,416.2"/>
<path marker-end="url(#flowchart-pointEnd)" style="fill:none;stroke:#000000;stroke-width:2.5px;" d="M1138.762,455.5L1202.078,509.7"/>
<path marker-end="url(#flowchart-pointEnd)" style="fill:none;stroke:#000000;stroke-width:2.5px;" d="M1076.363,455.5L1013.047,509.7"/>
<path marker-end="url(#flowchart-pointEnd)" style="fill:none;stroke:#000000;stroke-width:2.5px;" d="M1042.32,450.335L823.664,509.7"/>
<path marker-end="url(#flowchart-pointEnd)" style="fill:none;stroke:#000000;stroke-width:2.5px;" d="M1400.645,465L1400.645,519.2"/>
<path marker-end="url(#flowchart-pointEnd)" style="fill:none;stroke:#000000;stroke-width:2.5px;" d="M1433.131,558.5L1499.059,612.7"/>
<path marker-end="url(#flowchart-pointEnd)" style="fill:none;stroke:#000000;stroke-width:2.5px;" d="M1368.158,558.5L1302.23,612.7"/>
<path marker-end="url(#flowchart-pointEnd)" style="fill:none;stroke:#000000;stroke-width:2.5px;" d="M1335.848,552.082L1085.285,612.7"/>
</g>

<g class="nodes">
<g transform="translate(174.59765625, 26.5)" class="node default">
<rect height="53" width="140.0625" y="-26.5" x="-70.03125" ry="0" rx="0" style="fill:#e1f5fe;stroke:#000000;stroke-width:2px;"/>
<text x="0" y="-5" text-anchor="middle" style="fill:#000000;font-weight:bold;font-size:12px;">User Story Input</text>
<text x="0" y="10" text-anchor="middle" style="fill:#000000;font-weight:bold;font-size:12px;">Natural Language</text>
</g>

<g transform="translate(174.59765625, 129.5)" class="node default">
<rect height="53" width="192.921875" y="-26.5" x="-96.4609375" ry="0" rx="0" style="fill:#f3e5f5;stroke:#000000;stroke-width:2px;"/>
<text x="0" y="-5" text-anchor="middle" style="fill:#000000;font-weight:bold;font-size:12px;">Agent A: Story Expansion</text>
<text x="0" y="10" text-anchor="middle" style="fill:#000000;font-weight:bold;font-size:12px;">LangChain LLM</text>
</g>

<g transform="translate(1156.125, 232.5)" class="node default">
<rect height="53" width="198.46875" y="-26.5" x="-99.234375" ry="0" rx="0" style="fill:#e8f5e8;stroke:#000000;stroke-width:2px;"/>
<text x="0" y="-5" text-anchor="middle" style="fill:#000000;font-weight:bold;font-size:12px;">Agent B: RAG Validation</text>
<text x="0" y="10" text-anchor="middle" style="fill:#000000;font-weight:bold;font-size:12px;">Knowledge Base Matching</text>
</g>

<g transform="translate(1216.89453125, 335.5)" class="node default">
<rect height="53" width="194.625" y="-26.5" x="-97.3125" ry="0" rx="0" style="fill:#fff3e0;stroke:#000000;stroke-width:2px;"/>
<text x="0" y="-5" text-anchor="middle" style="fill:#000000;font-weight:bold;font-size:12px;">Agent C: Test Generation</text>
<text x="0" y="10" text-anchor="middle" style="fill:#000000;font-weight:bold;font-size:12px;">Microsoft MCP Enhanced</text>
</g>

<g transform="translate(1400.64453125, 438.5)" class="node default">
<rect height="53" width="206.84375" y="-26.5" x="-103.421875" ry="0" rx="0" style="fill:#fce4ec;stroke:#000000;stroke-width:2px;"/>
<text x="0" y="-5" text-anchor="middle" style="fill:#000000;font-weight:bold;font-size:12px;">Agent G: Analysis &amp; Report</text>
<text x="0" y="10" text-anchor="middle" style="fill:#000000;font-weight:bold;font-size:12px;">Quality Assessment</text>
</g>

<g transform="translate(1156.125, 129.5)" class="node default">
<rect height="53" width="163.9375" y="-26.5" x="-81.96875" ry="0" rx="0" style="fill:#f5f5f5;stroke:#000000;stroke-width:2px;"/>
<text x="0" y="-5" text-anchor="middle" style="fill:#000000;font-weight:bold;font-size:12px;">RAG Knowledge Base</text>
<text x="0" y="10" text-anchor="middle" style="fill:#000000;font-weight:bold;font-size:12px;">Selectors &amp; APIs</text>
</g>

<g transform="translate(738.84375, 232.5)" class="node default">
<rect height="53" width="166.953125" y="-26.5" x="-83.4765625" ry="0" rx="0" style="fill:#f5f5f5;stroke:#000000;stroke-width:2px;"/>
<text x="0" y="-5" text-anchor="middle" style="fill:#000000;font-weight:bold;font-size:12px;">Microsoft MCP Server</text>
<text x="0" y="10" text-anchor="middle" style="fill:#000000;font-weight:bold;font-size:12px;">Playwright Validation</text>
</g>

<g transform="translate(174.59765625, 232.5)" class="node default">
<rect height="34" width="128.921875" y="-17" x="-64.4609375" ry="0" rx="0" style="fill:#e3f2fd;stroke:#000000;stroke-width:2px;"/>
<text x="0" y="0" text-anchor="middle" style="fill:#000000;font-weight:bold;font-size:12px;">4 Test Scenarios</text>
</g>

<g transform="translate(629.875, 335.5)" class="node default">
<rect height="53" width="110.125" y="-26.5" x="-55.0625" ry="0" rx="0" style="fill:#e8f5e8;stroke:#000000;stroke-width:2px;"/>
<text x="0" y="-5" text-anchor="middle" style="fill:#000000;font-weight:bold;font-size:12px;">Positive Tests</text>
<text x="0" y="10" text-anchor="middle" style="fill:#000000;font-weight:bold;font-size:12px;">Happy Path</text>
</g>

<g transform="translate(465.9609375, 335.5)" class="node default">
<rect height="53" width="117.703125" y="-26.5" x="-58.8515625" ry="0" rx="0" style="fill:#ffebee;stroke:#000000;stroke-width:2px;"/>
<text x="0" y="-5" text-anchor="middle" style="fill:#000000;font-weight:bold;font-size:12px;">Negative Tests</text>
<text x="0" y="10" text-anchor="middle" style="fill:#000000;font-weight:bold;font-size:12px;">Error Cases</text>
</g>

<g transform="translate(276.375, 335.5)" class="node default">
<rect height="53" width="161.46875" y="-26.5" x="-80.734375" ry="0" rx="0" style="fill:#fff8e1;stroke:#000000;stroke-width:2px;"/>
<text x="0" y="-5" text-anchor="middle" style="fill:#000000;font-weight:bold;font-size:12px;">Edge Cases</text>
<text x="0" y="10" text-anchor="middle" style="fill:#000000;font-weight:bold;font-size:12px;">Boundary Conditions</text>
</g>

<g transform="translate(72.8203125, 335.5)" class="node default">
<rect height="53" width="145.640625" y="-26.5" x="-72.8203125" ry="0" rx="0" style="fill:#f3e5f5;stroke:#000000;stroke-width:2px;"/>
<text x="0" y="-5" text-anchor="middle" style="fill:#000000;font-weight:bold;font-size:12px;">Cross-Device Tests</text>
<text x="0" y="10" text-anchor="middle" style="fill:#000000;font-weight:bold;font-size:12px;">Mobile &amp; Desktop</text>
</g>

<g transform="translate(829.94921875, 335.5)" class="node default">
<rect height="34" width="154.296875" y="-17" x="-77.1484375" ry="0" rx="0" style="fill:#e8f5e8;stroke:#000000;stroke-width:2px;"/>
<text x="0" y="0" text-anchor="middle" style="fill:#000000;font-weight:bold;font-size:12px;">Validated Scenarios</text>
</g>

<g transform="translate(919.5, 438.5)" class="node default">
<rect height="53" width="145.640625" y="-26.5" x="-72.8203125" ry="0" rx="0" style="fill:#e3f2fd;stroke:#000000;stroke-width:2px;"/>
<text x="0" y="-5" text-anchor="middle" style="fill:#000000;font-weight:bold;font-size:12px;">Matched Selectors</text>
<text x="0" y="10" text-anchor="middle" style="fill:#000000;font-weight:bold;font-size:12px;">CSS &amp; Playwright</text>
</g>

<g transform="translate(740.3984375, 438.5)" class="node default">
<rect height="53" width="112.5625" y="-26.5" x="-56.28125" ry="0" rx="0" style="fill:#fff3e0;stroke:#000000;stroke-width:2px;"/>
<text x="0" y="-5" text-anchor="middle" style="fill:#000000;font-weight:bold;font-size:12px;">API Endpoints</text>
<text x="0" y="10" text-anchor="middle" style="fill:#000000;font-weight:bold;font-size:12px;">REST Services</text>
</g>

<g transform="translate(568.34375, 438.5)" class="node default">
<rect height="53" width="131.546875" y="-26.5" x="-65.7734375" ry="0" rx="0" style="fill:#f5f5f5;stroke:#000000;stroke-width:2px;"/>
<text x="0" y="-5" text-anchor="middle" style="fill:#000000;font-weight:bold;font-size:12px;">Validation Notes</text>
<text x="0" y="10" text-anchor="middle" style="fill:#000000;font-weight:bold;font-size:12px;">Warnings &amp; Tips</text>
</g>

<g transform="translate(1107.5625, 438.5)" class="node default">
<rect height="34" width="130.484375" y="-17" x="-65.2421875" ry="0" rx="0" style="fill:#fff3e0;stroke:#000000;stroke-width:2px;"/>
<text x="0" y="0" text-anchor="middle" style="fill:#000000;font-weight:bold;font-size:12px;">Generated Tests</text>
</g>

<g transform="translate(1202.078125, 541.5)" class="node default">
<rect height="53" width="127.34375" y="-26.5" x="-63.671875" ry="0" rx="0" style="fill:#e8f5e8;stroke:#000000;stroke-width:2px;"/>
<text x="0" y="-5" text-anchor="middle" style="fill:#000000;font-weight:bold;font-size:12px;">TypeScript Files</text>
<text x="0" y="10" text-anchor="middle" style="fill:#000000;font-weight:bold;font-size:12px;">.spec.ts</text>
</g>

<g transform="translate(1013.046875, 541.5)" class="node default">
<rect height="53" width="150.71875" y="-26.5" x="-75.359375" ry="0" rx="0" style="fill:#f3e5f5;stroke:#000000;stroke-width:2px;"/>
<text x="0" y="-5" text-anchor="middle" style="fill:#000000;font-weight:bold;font-size:12px;">Gherkin Comments</text>
<text x="0" y="10" text-anchor="middle" style="fill:#000000;font-weight:bold;font-size:12px;">Given/When/Then</text>
</g>

<g transform="translate(823.6640625, 541.5)" class="node default">
<rect height="53" width="128.046875" y="-26.5" x="-64.0234375" ry="0" rx="0" style="fill:#ffebee;stroke:#000000;stroke-width:2px;"/>
<text x="0" y="-5" text-anchor="middle" style="fill:#000000;font-weight:bold;font-size:12px;">Error Handling</text>
<text x="0" y="10" text-anchor="middle" style="fill:#000000;font-weight:bold;font-size:12px;">Try/Catch Logic</text>
</g>

<g transform="translate(1400.64453125, 541.5)" class="node default">
<rect height="34" width="129.59375" y="-17" x="-64.796875" ry="0" rx="0" style="fill:#fce4ec;stroke:#000000;stroke-width:2px;"/>
<text x="0" y="0" text-anchor="middle" style="fill:#000000;font-weight:bold;font-size:12px;">Engineer Report</text>
</g>

<g transform="translate(1499.05859375, 644.5)" class="node default">
<rect height="53" width="110.453125" y="-26.5" x="-55.2265625" ry="0" rx="0" style="fill:#e8f5e8;stroke:#000000;stroke-width:2px;"/>
<text x="0" y="-5" text-anchor="middle" style="fill:#000000;font-weight:bold;font-size:12px;">Quality Score</text>
<text x="0" y="10" text-anchor="middle" style="fill:#000000;font-weight:bold;font-size:12px;">0-100 Rating</text>
</g>

<g transform="translate(1302.23046875, 644.5)" class="node default">
<rect height="53" width="183.203125" y="-26.5" x="-91.6015625" ry="0" rx="0" style="fill:#fff8e1;stroke:#000000;stroke-width:2px;"/>
<text x="0" y="-5" text-anchor="middle" style="fill:#000000;font-weight:bold;font-size:12px;">Issue Analysis</text>
<text x="0" y="10" text-anchor="middle" style="fill:#000000;font-weight:bold;font-size:12px;">Syntax &amp; Best Practices</text>
</g>

<g transform="translate(1085.28515625, 644.5)" class="node default">
<rect height="53" width="150.6875" y="-26.5" x="-75.34375" ry="0" rx="0" style="fill:#e3f2fd;stroke:#000000;stroke-width:2px;"/>
<text x="0" y="-5" text-anchor="middle" style="fill:#000000;font-weight:bold;font-size:12px;">Recommendations</text>
<text x="0" y="10" text-anchor="middle" style="fill:#000000;font-weight:bold;font-size:12px;">LLM-Powered Fixes</text>
</g>

</g>
</g>
</svg>
